<?xml version="1.0" encoding="UTF-8"?>
<!-- Generator: Adobe Illustrator 16.0.0, SVG Export Plug-In . SVG Version: 6.00 Build 0)  -->
<!DOCTYPE svg PUBLIC "-//W3C//DTD SVG 1.1//EN" "http://www.w3.org/Graphics/SVG/1.1/DTD/svg11.dtd">
<svg version="1.1" id="Layer_1" xmlns="http://www.w3.org/2000/svg" xmlns:xlink="http://www.w3.org/1999/xlink" x="0px" y="0px" width="186px" height="39.999px" viewBox="0 0 186 39.999" enable-background="new 0 0 186 39.999" xml:space="preserve">
<g>
	<path fill="#20438E" d="M168.42,29.119c1.609,0.63,4.25,1.11,7.85,1.12h0.021h0.03c3.59-0.01,6.24-0.49,7.85-1.12l-0.359-0.94   c0-5.41-5.351-5.9-5.881-5.9c0-0.59-1.039-0.48-1.38-0.48c0-0.58,0.31-0.77,0.31-0.77l0.67-0.42l-0.139-0.61h-2.19l-0.14,0.61   l0.67,0.42c0,0,0.31,0.19,0.31,0.77c-0.34,0-1.38-0.11-1.38,0.48c-0.53,0-5.881,0.49-5.881,5.9L168.42,29.119z"/>
	<path fill="#20438E" d="M184.74,29.798c-1.51,0.76-4.36,1.37-8.42,1.38h-0.03h-0.021c-4.06-0.01-6.91-0.62-8.42-1.38   c-0.68,0.84-1.26,1.72-1.26,2.45c0,1.21,3.381,2.67,9.68,2.68h0.021h0.03c6.3-0.01,9.68-1.47,9.68-2.68   C186,31.519,185.41,30.639,184.74,29.798z"/>
	<g>
		<path fill-rule="evenodd" clip-rule="evenodd" fill="#20438E" d="M3.09,33.449c0.71,0,1.42-0.13,2.11-0.38    c0.7-0.25,1.34-0.62,1.94-1.13c0.61-0.49,1.13-1.11,1.58-1.86l-0.02,0.25l-0.04,0.43l-0.03,0.44c-0.02,0.24-0.02,0.49-0.02,0.76    c0,0.26,0.02,0.5,0.04,0.73c0.02,0.22,0.04,0.41,0.08,0.55c0.04,0.13,0.08,0.21,0.13,0.21c0.13,0,0.34-0.01,0.61-0.02    c0.28-0.02,0.59-0.05,0.93-0.09c0.34-0.04,0.68-0.09,1.02-0.16c0.33-0.07,0.61-0.15,0.85-0.26l0.02-0.98    c0.01-0.43,0.03-0.92,0.07-1.48s0.1-1.13,0.17-1.72c0.04-0.27,0.09-0.66,0.17-1.16l0.26-1.77l0.35-2.2l0.38-2.43l0.39-2.47    l0.37-2.33l0.3-1.99c0.08-0.41,0.09-0.71,0.07-0.9c-0.03-0.2-0.13-0.3-0.31-0.3c-0.2,0-0.46,0.02-0.77,0.05    c-0.3,0.03-0.62,0.06-0.96,0.1l-0.98,0.14l-0.78,0.12c0,0.26-0.03,0.6-0.07,1.04s-0.1,0.92-0.18,1.46l-0.23,1.61    c-0.09,0.54-0.16,1.03-0.25,1.49c-0.08,0.45-0.15,0.82-0.21,1.11c-0.26-0.15-0.58-0.27-0.96-0.35c-0.37-0.08-0.78-0.12-1.22-0.12    c-0.99,0-1.9,0.17-2.73,0.49c-0.82,0.32-1.55,0.78-2.19,1.35c-0.64,0.57-1.18,1.24-1.62,2c-0.45,0.76-0.79,1.58-1.01,2.46    C0.12,27.019,0,27.918,0,28.849c0,0.98,0.13,1.8,0.38,2.48c0.25,0.69,0.6,1.21,1.06,1.57c0.46,0.37,0.99,0.55,1.62,0.55H3.09z     M5.07,30.349c-0.31,0-0.57-0.15-0.78-0.48s-0.32-0.86-0.32-1.6c0-0.5,0.05-1.02,0.15-1.55c0.11-0.54,0.26-1.07,0.48-1.57    c0.21-0.51,0.48-0.97,0.81-1.38s0.72-0.74,1.17-0.99c0.44-0.23,0.95-0.36,1.52-0.37c0.38,0,0.71,0.06,0.99,0.17    c0.27,0.1,0.5,0.24,0.68,0.42l-0.07,0.31l-0.07,0.37l-0.04,0.26c-0.16,0.88-0.38,1.67-0.66,2.36c-0.28,0.69-0.59,1.3-0.93,1.8    c-0.35,0.51-0.7,0.93-1.05,1.26c-0.36,0.33-0.7,0.58-1.02,0.74c-0.32,0.17-0.6,0.25-0.83,0.25H5.07z M22.79,19.838    c-0.9,0-1.73,0.16-2.49,0.47c-0.76,0.31-1.45,0.74-2.05,1.29c-0.61,0.55-1.12,1.18-1.55,1.91c-0.42,0.71-0.75,1.49-0.97,2.3    c-0.22,0.82-0.34,1.66-0.34,2.52c-0.01,1.05,0.14,1.95,0.46,2.72c0.3,0.76,0.79,1.35,1.46,1.77c0.68,0.42,1.56,0.63,2.66,0.63    c0.9-0.01,1.69-0.11,2.37-0.3c0.68-0.2,1.25-0.44,1.71-0.73c0.47-0.29,0.82-0.58,1.07-0.87c0.18-0.18,0.32-0.4,0.43-0.67    c0.1-0.27,0.16-0.59,0.16-0.97c0-0.29-0.03-0.53-0.09-0.71c-0.05-0.19-0.13-0.33-0.23-0.43c-0.32,0.26-0.68,0.52-1.1,0.78    c-0.41,0.27-0.88,0.49-1.4,0.67c-0.51,0.18-1.07,0.27-1.67,0.28c-0.48-0.01-0.86-0.1-1.16-0.28c-0.29-0.17-0.51-0.42-0.65-0.73    c-0.13-0.31-0.2-0.67-0.2-1.07v-0.36c0.43-0.01,0.91-0.06,1.44-0.14c0.53-0.08,1.06-0.2,1.61-0.37c0.55-0.16,1.08-0.37,1.59-0.62    c0.51-0.26,0.97-0.57,1.38-0.93c0.4-0.36,0.72-0.79,0.96-1.27c0.23-0.48,0.36-1.03,0.36-1.64c0-0.7-0.16-1.29-0.48-1.77    c-0.32-0.48-0.75-0.85-1.31-1.1c-0.56-0.26-1.21-0.38-1.94-0.38H22.79z M22.27,22.208c0.23,0,0.43,0.06,0.58,0.17    c0.16,0.12,0.27,0.25,0.35,0.41c0.08,0.17,0.12,0.32,0.12,0.47c0,0.19-0.05,0.41-0.15,0.66c-0.11,0.26-0.3,0.51-0.58,0.76    c-0.28,0.25-0.68,0.47-1.2,0.66c-0.53,0.19-1.21,0.32-2.04,0.38c0.17-0.82,0.42-1.5,0.73-2.01c0.32-0.52,0.66-0.9,1.04-1.15    c0.38-0.23,0.75-0.36,1.12-0.35H22.27z M33.78,19.838c-0.77,0-1.47,0.11-2.1,0.34c-0.63,0.22-1.17,0.54-1.63,0.94    c-0.45,0.4-0.81,0.86-1.06,1.4c-0.24,0.53-0.36,1.11-0.37,1.74c0,0.38,0.05,0.76,0.16,1.13c0.11,0.37,0.32,0.74,0.62,1.12    c0.3,0.37,0.73,0.75,1.29,1.14c0.55,0.39,0.98,0.71,1.29,0.96c0.31,0.24,0.53,0.45,0.66,0.63c0.12,0.18,0.18,0.35,0.18,0.52    c-0.01,0.29-0.15,0.51-0.42,0.7c-0.27,0.17-0.64,0.26-1.1,0.27c-0.37,0-0.75-0.04-1.12-0.11c-0.38-0.08-0.74-0.16-1.07-0.28    c-0.34-0.11-0.64-0.22-0.9-0.34c-0.14-0.07-0.27-0.03-0.39,0.11c-0.12,0.14-0.21,0.34-0.28,0.6c-0.07,0.26-0.09,0.53-0.07,0.83    c0.02,0.29,0.11,0.56,0.25,0.8c0.13,0.19,0.34,0.36,0.64,0.53c0.29,0.17,0.66,0.31,1.09,0.42c0.42,0.1,0.89,0.16,1.42,0.16    c0.85,0,1.63-0.13,2.32-0.36c0.68-0.24,1.26-0.57,1.75-0.99c0.48-0.41,0.85-0.88,1.11-1.41c0.25-0.54,0.38-1.1,0.38-1.69    c0.01-0.39-0.06-0.77-0.19-1.14c-0.14-0.36-0.37-0.71-0.68-1.07c-0.32-0.36-0.75-0.72-1.29-1.1c-0.47-0.32-0.86-0.59-1.15-0.81    c-0.3-0.23-0.52-0.42-0.68-0.58c-0.15-0.16-0.25-0.3-0.3-0.42c-0.06-0.12-0.08-0.24-0.08-0.35c0.01-0.24,0.07-0.43,0.2-0.58    c0.13-0.16,0.3-0.27,0.51-0.34c0.21-0.07,0.44-0.11,0.69-0.11c0.28,0,0.55,0.03,0.78,0.08c0.23,0.05,0.46,0.11,0.68,0.19    c0.29,0.11,0.55,0.11,0.76,0.02c0.22-0.1,0.4-0.25,0.54-0.47c0.14-0.22,0.25-0.46,0.33-0.73c0.08-0.26,0.12-0.5,0.14-0.73    c-0.2-0.22-0.48-0.41-0.8-0.56c-0.33-0.15-0.68-0.27-1.04-0.35c-0.37-0.07-0.72-0.11-1.04-0.11H33.78z M43.37,23.088l0.14-1.03    l0.15-1.09c0.04-0.36,0.08-0.68,0.1-0.95c0.03-0.27,0.03-0.46,0.02-0.56c-0.19-0.02-0.43-0.02-0.71,0.02    c-0.29,0.04-0.59,0.09-0.92,0.16c-0.33,0.07-0.64,0.15-0.95,0.24c-0.31,0.08-0.57,0.17-0.8,0.25s-0.38,0.15-0.47,0.21    c0,0.21-0.02,0.48-0.05,0.83c-0.03,0.34-0.07,0.71-0.12,1.12l-0.15,1.21l-0.15,1.11c-0.35,2.45-0.72,4.9-1.11,7.37    c-0.39,2.46-0.8,4.91-1.22,7.33c0.2,0,0.45-0.01,0.75-0.03c0.3-0.02,0.6-0.05,0.92-0.09c0.32-0.03,0.61-0.07,0.89-0.12    c0.27-0.04,0.49-0.09,0.65-0.14c0.28-0.1,0.5-0.24,0.64-0.44c0.14-0.19,0.24-0.48,0.29-0.85c0.07-0.47,0.14-0.95,0.22-1.46    l0.27-1.63l0.33-1.92c0.35,0.3,0.78,0.52,1.28,0.64c0.5,0.13,1.03,0.19,1.57,0.18c0.88,0,1.69-0.17,2.43-0.5    c0.74-0.32,1.41-0.78,2-1.36c0.58-0.58,1.09-1.25,1.5-2.02c0.41-0.77,0.73-1.6,0.94-2.49c0.22-0.89,0.33-1.82,0.33-2.76    c0-0.54-0.05-1.08-0.17-1.6c-0.12-0.53-0.31-1.01-0.56-1.44c-0.26-0.44-0.61-0.78-1.04-1.04c-0.43-0.26-0.95-0.4-1.58-0.4    c-0.62,0-1.2,0.1-1.72,0.28c-0.53,0.18-1.02,0.42-1.46,0.73c-0.45,0.3-0.85,0.65-1.21,1.04c-0.37,0.38-0.69,0.78-0.97,1.2H43.37z     M47.16,22.878c0.34,0,0.6,0.16,0.77,0.47c0.18,0.31,0.28,0.76,0.28,1.35c0,0.46-0.04,0.96-0.13,1.49    c-0.08,0.53-0.21,1.05-0.4,1.57c-0.18,0.51-0.43,0.98-0.74,1.41c-0.31,0.42-0.69,0.76-1.13,1.02c-0.46,0.26-0.98,0.39-1.6,0.39    c-0.26,0.01-0.55-0.05-0.85-0.17c-0.3-0.12-0.56-0.32-0.81-0.59c0-0.1,0.01-0.2,0.03-0.31l0.06-0.39    c0.19-0.96,0.45-1.82,0.79-2.58c0.34-0.77,0.72-1.42,1.15-1.97c0.43-0.54,0.86-0.96,1.3-1.25s0.85-0.44,1.25-0.44H47.16z     M61.23,19.838c-0.89,0-1.72,0.16-2.49,0.47c-0.76,0.31-1.45,0.74-2.05,1.29c-0.61,0.55-1.12,1.18-1.55,1.91    c-0.42,0.71-0.74,1.49-0.97,2.3c-0.22,0.82-0.34,1.66-0.34,2.52c0,1.05,0.15,1.95,0.46,2.72c0.3,0.76,0.79,1.35,1.46,1.77    c0.68,0.42,1.56,0.63,2.66,0.63c0.9-0.01,1.69-0.11,2.37-0.3c0.68-0.2,1.25-0.44,1.71-0.73c0.47-0.29,0.82-0.58,1.08-0.87    c0.18-0.18,0.32-0.4,0.42-0.67c0.11-0.27,0.16-0.59,0.16-0.97c0-0.29-0.03-0.53-0.08-0.71c-0.06-0.19-0.14-0.33-0.24-0.43    c-0.31,0.26-0.68,0.52-1.09,0.78c-0.42,0.27-0.89,0.49-1.4,0.67c-0.52,0.18-1.08,0.27-1.68,0.28c-0.47-0.01-0.86-0.1-1.16-0.28    c-0.29-0.17-0.51-0.42-0.65-0.73c-0.13-0.31-0.2-0.67-0.2-1.07v-0.36c0.44-0.01,0.92-0.06,1.44-0.14c0.53-0.08,1.07-0.2,1.62-0.37    c0.54-0.16,1.07-0.37,1.58-0.62c0.51-0.26,0.97-0.57,1.38-0.93c0.4-0.36,0.72-0.79,0.96-1.27c0.24-0.48,0.36-1.03,0.36-1.64    c0-0.7-0.16-1.29-0.48-1.77c-0.31-0.48-0.75-0.85-1.31-1.1c-0.56-0.26-1.2-0.38-1.94-0.38H61.23z M60.71,22.208    c0.23,0,0.43,0.06,0.58,0.17c0.16,0.12,0.27,0.25,0.35,0.41c0.08,0.17,0.12,0.32,0.12,0.47c0,0.19-0.05,0.41-0.15,0.66    c-0.1,0.26-0.29,0.51-0.57,0.76c-0.29,0.25-0.69,0.47-1.21,0.66s-1.2,0.32-2.03,0.38c0.17-0.82,0.41-1.5,0.72-2.01    c0.32-0.52,0.67-0.9,1.04-1.15c0.38-0.23,0.75-0.36,1.12-0.35H60.71z M72.4,19.838c-0.83,0-1.59,0.13-2.28,0.4    c-0.69,0.27-1.29,0.65-1.8,1.14c-0.51,0.48-0.9,1.07-1.18,1.74c-0.28,0.68-0.42,1.43-0.43,2.25c0.01,0.53,0.07,1,0.19,1.39    c0.12,0.4,0.28,0.73,0.47,1.01c0.19,0.27,0.39,0.49,0.6,0.67c0.21,0.17,0.4,0.3,0.58,0.39c-0.34,0.19-0.66,0.39-0.97,0.62    s-0.56,0.45-0.76,0.68c-0.2,0.23-0.31,0.44-0.31,0.63c0,0.32,0.06,0.61,0.17,0.86c0.11,0.26,0.23,0.47,0.37,0.65    c0.14,0.17,0.26,0.3,0.36,0.39c-0.53,0.28-1,0.57-1.4,0.89c-0.42,0.31-0.74,0.62-0.98,0.94c-0.23,0.31-0.35,0.6-0.36,0.86    c0,0.47,0.11,0.96,0.34,1.45c0.23,0.5,0.59,0.97,1.09,1.4c0.5,0.43,1.16,0.78,1.97,1.04c0.81,0.27,1.8,0.41,2.96,0.42    c0.98-0.01,1.87-0.14,2.66-0.4c0.79-0.27,1.46-0.62,2.02-1.08c0.56-0.45,0.99-0.97,1.28-1.55c0.3-0.58,0.44-1.19,0.45-1.83    c0-0.44-0.08-0.87-0.26-1.31c-0.18-0.43-0.47-0.83-0.87-1.19c-0.39-0.36-0.93-0.64-1.58-0.84l-0.9-0.24l-1.03-0.25l-0.96-0.24    c-0.3-0.08-0.54-0.15-0.73-0.21c-0.37-0.1-0.66-0.21-0.85-0.33c-0.18-0.13-0.28-0.27-0.28-0.43c0-0.08,0.03-0.15,0.08-0.21    l0.18-0.2l0.29,0.05c0.13,0.03,0.3,0.04,0.49,0.06c0.2,0.03,0.4,0.04,0.62,0.04c0.5,0,1.02-0.06,1.53-0.18    c0.52-0.11,1.02-0.3,1.49-0.55c0.48-0.25,0.9-0.58,1.27-0.98c0.37-0.4,0.67-0.88,0.89-1.44c0.21-0.56,0.32-1.21,0.33-1.95    c0-0.12-0.01-0.27-0.03-0.46s-0.04-0.38-0.08-0.58c-0.03-0.19-0.08-0.37-0.12-0.51c0.13,0,0.32,0.01,0.55,0.03l0.72,0.04    c0.24,0.01,0.43,0.02,0.59,0.02c0-0.17,0-0.38,0.02-0.61l0.05-0.75l0.07-0.75c0.04-0.24,0.06-0.44,0.09-0.61l-0.73,0.13    l-0.82,0.14l-0.74,0.12c-0.22,0.03-0.39,0.05-0.5,0.05c-0.17,0.01-0.34-0.01-0.52-0.06c-0.18-0.04-0.37-0.1-0.56-0.18    c-0.16-0.07-0.36-0.15-0.6-0.24c-0.25-0.09-0.54-0.17-0.89-0.24c-0.35-0.06-0.76-0.1-1.22-0.1H72.4z M73.8,23.938    c-0.01,0.64-0.1,1.21-0.29,1.71c-0.19,0.51-0.45,0.91-0.78,1.2c-0.32,0.3-0.7,0.45-1.12,0.45c-0.43,0-0.76-0.15-1-0.46    c-0.24-0.31-0.36-0.78-0.37-1.41c0-0.45,0.05-0.88,0.16-1.29c0.1-0.41,0.25-0.78,0.45-1.09c0.2-0.32,0.43-0.58,0.71-0.76    c0.27-0.19,0.58-0.28,0.93-0.29c0.46,0.01,0.79,0.18,1,0.52c0.21,0.33,0.31,0.8,0.31,1.39V23.938z M71.7,37.079    c-0.49,0-0.96-0.06-1.4-0.16c-0.44-0.11-0.83-0.27-1.17-0.46c-0.34-0.2-0.61-0.43-0.8-0.7c-0.2-0.26-0.3-0.56-0.3-0.87    c0-0.18,0.08-0.36,0.22-0.52c0.15-0.17,0.31-0.32,0.51-0.45c0.19-0.14,0.36-0.24,0.52-0.32c0.15,0.02,0.38,0.06,0.68,0.12    c0.31,0.06,0.65,0.13,1,0.21c0.37,0.09,0.71,0.17,1.04,0.26s0.6,0.17,0.81,0.26c0.34,0.13,0.6,0.27,0.78,0.41    c0.18,0.14,0.29,0.29,0.36,0.44c0.05,0.16,0.09,0.32,0.08,0.49c-0.01,0.25-0.1,0.47-0.29,0.66c-0.2,0.2-0.46,0.35-0.81,0.46    c-0.34,0.11-0.74,0.17-1.2,0.17H71.7z M79.3,29.148c0.01,0.97,0.13,1.78,0.37,2.41c0.24,0.64,0.57,1.12,0.99,1.43    c0.42,0.31,0.91,0.46,1.47,0.46c0.79,0,1.55-0.16,2.28-0.46c0.73-0.3,1.39-0.71,1.99-1.23c0.6-0.51,1.1-1.1,1.5-1.76l-0.06,0.6    c-0.02,0.22-0.04,0.45-0.06,0.68c-0.01,0.36-0.03,0.71-0.02,1.03c0.01,0.33,0.02,0.6,0.06,0.81s0.09,0.32,0.17,0.33    c0.13,0,0.33-0.01,0.61-0.02c0.27-0.02,0.58-0.05,0.92-0.09s0.68-0.09,1.01-0.16c0.33-0.07,0.62-0.15,0.87-0.26    c-0.01-0.17-0.02-0.42-0.02-0.77c-0.01-0.34,0-0.74,0.03-1.21c0.02-0.46,0.07-0.95,0.13-1.47c0.08-0.58,0.15-1.22,0.25-1.91    l0.29-2.12c0.11-0.72,0.21-1.41,0.31-2.06s0.19-1.23,0.28-1.73c0.08-0.5,0.16-0.88,0.21-1.14c-0.39-0.09-0.84-0.19-1.33-0.29    c-0.5-0.1-1.02-0.19-1.56-0.27c-0.53-0.07-1.06-0.11-1.57-0.11c-0.85-0.01-1.65,0.07-2.38,0.22c-0.74,0.15-1.44,0.4-2.08,0.73    c-0.65,0.35-1.26,0.79-1.83,1.36c-0.54,0.53-0.98,1.1-1.35,1.7c-0.36,0.6-0.65,1.22-0.87,1.84c-0.22,0.62-0.37,1.22-0.47,1.81    c-0.09,0.58-0.14,1.13-0.14,1.62V29.148z M84.14,30.349c-0.28,0-0.51-0.14-0.69-0.45c-0.17-0.29-0.27-0.77-0.27-1.43    c0-0.44,0.05-0.92,0.14-1.45c0.1-0.52,0.25-1.04,0.46-1.57c0.2-0.52,0.47-1.02,0.8-1.48c0.35-0.45,0.69-0.78,1.03-1.02    c0.34-0.23,0.68-0.39,1.02-0.48c0.34-0.08,0.69-0.12,1.04-0.11c0.23,0,0.45,0.02,0.65,0.05c0.2,0.04,0.38,0.09,0.54,0.15    l-0.04,0.36l-0.05,0.28c-0.14,0.97-0.35,1.83-0.62,2.6s-0.58,1.44-0.92,2.01s-0.7,1.04-1.07,1.42c-0.37,0.37-0.73,0.66-1.08,0.84    c-0.34,0.18-0.64,0.28-0.91,0.28H84.14z M99.38,23.969c0.08-0.55,0.13-1.07,0.16-1.57c0.03-0.49,0.04-0.93,0.02-1.31    c0-0.38-0.03-0.69-0.07-0.91c-0.04-0.23-0.08-0.34-0.14-0.34c-0.08,0-0.23,0.02-0.45,0.06c-0.21,0.03-0.47,0.08-0.76,0.14    c-0.28,0.06-0.57,0.12-0.86,0.18l-0.79,0.19c-0.23,0.07-0.39,0.12-0.49,0.16c0.02,0.13,0.03,0.31,0.03,0.53    c0,0.23,0,0.47-0.01,0.73c-0.01,0.27-0.02,0.52-0.03,0.76l-0.04,0.61c-0.06,0.62-0.14,1.28-0.23,2c-0.09,0.71-0.19,1.43-0.3,2.19    c-0.11,0.74-0.22,1.48-0.34,2.21l-0.34,2.04c-0.11,0.64-0.22,1.2-0.31,1.69c0.25-0.01,0.53-0.02,0.85-0.05    c0.32-0.03,0.64-0.07,0.98-0.12c0.33-0.04,0.64-0.1,0.92-0.16c0.29-0.07,0.51-0.14,0.69-0.22c0.2-0.09,0.35-0.21,0.46-0.36    c0.1-0.16,0.18-0.39,0.24-0.7c0.24-1.3,0.5-2.43,0.79-3.36c0.29-0.93,0.59-1.71,0.89-2.33c0.31-0.61,0.61-1.09,0.91-1.45    c0.3-0.36,0.58-0.6,0.84-0.75c0.25-0.15,0.48-0.22,0.68-0.22c0.28,0.01,0.54,0.05,0.79,0.13c0.25,0.08,0.45,0.18,0.63,0.28    c0.18-0.17,0.35-0.41,0.51-0.71c0.17-0.31,0.32-0.64,0.45-0.99c0.13-0.36,0.23-0.72,0.28-1.06c0.06-0.34,0.07-0.64,0.02-0.9    c-0.09-0.08-0.22-0.17-0.38-0.25s-0.32-0.15-0.49-0.19c-0.16-0.05-0.3-0.08-0.41-0.08c-0.32-0.01-0.67,0.05-1.05,0.16    c-0.37,0.12-0.76,0.33-1.16,0.63c-0.4,0.3-0.8,0.72-1.21,1.26c-0.4,0.54-0.8,1.23-1.19,2.08H99.38z"/>
		<path fill-rule="evenodd" clip-rule="evenodd" fill="#E11F26" d="M122.69,19.999c-0.97,0-1.87,0.15-2.68,0.45    c-0.82,0.29-1.54,0.7-2.19,1.23c-0.64,0.53-1.19,1.15-1.64,1.86c-0.45,0.72-0.79,1.49-1.02,2.34c-0.24,0.84-0.36,1.73-0.36,2.66    c0.01,1.16,0.19,2.11,0.56,2.85c0.37,0.74,0.89,1.28,1.55,1.63c0.67,0.36,1.45,0.53,2.36,0.53c0.78-0.01,1.49-0.1,2.11-0.26    c0.63-0.17,1.17-0.38,1.63-0.65c0.46-0.26,0.84-0.55,1.13-0.84c0.25-0.24,0.42-0.5,0.53-0.78s0.17-0.58,0.17-0.88    c-0.01-0.21-0.03-0.39-0.09-0.55c-0.05-0.16-0.11-0.29-0.18-0.4c-0.07-0.11-0.14-0.18-0.2-0.22c-0.18,0.17-0.41,0.34-0.68,0.54    c-0.27,0.19-0.56,0.37-0.89,0.55c-0.32,0.17-0.67,0.32-1.03,0.43c-0.36,0.11-0.72,0.17-1.08,0.17c-0.48,0-0.85-0.12-1.14-0.35    c-0.3-0.23-0.51-0.55-0.64-0.97c-0.13-0.42-0.19-0.91-0.19-1.47c0-0.45,0.04-0.9,0.13-1.38c0.08-0.48,0.22-0.94,0.41-1.38    c0.19-0.45,0.44-0.86,0.74-1.22c0.3-0.36,0.66-0.64,1.09-0.86c0.43-0.21,0.92-0.32,1.48-0.32c0.31,0,0.61,0.03,0.91,0.1    c0.3,0.06,0.59,0.15,0.86,0.25c0.13-0.02,0.26-0.1,0.4-0.25c0.15-0.15,0.28-0.34,0.4-0.58c0.12-0.23,0.22-0.47,0.29-0.73    c0.07-0.25,0.09-0.48,0.07-0.69c-0.2-0.19-0.46-0.35-0.75-0.47c-0.3-0.12-0.62-0.21-0.97-0.26c-0.35-0.06-0.7-0.08-1.06-0.08    H122.69z M134.41,19.999c-1.23,0.01-2.32,0.23-3.27,0.66c-0.96,0.45-1.77,1.05-2.43,1.82s-1.16,1.66-1.5,2.67    c-0.35,1-0.52,2.09-0.52,3.24c0,1.7,0.4,2.99,1.22,3.86c0.81,0.86,2.08,1.3,3.8,1.3c1.19-0.01,2.26-0.23,3.21-0.66    c0.95-0.44,1.76-1.03,2.43-1.8s1.19-1.66,1.54-2.67c0.35-1.01,0.53-2.1,0.53-3.26c0-1.03-0.17-1.93-0.54-2.7    c-0.36-0.77-0.92-1.37-1.65-1.8c-0.75-0.43-1.67-0.66-2.8-0.66H134.41z M133.92,22.469c0.28,0.01,0.51,0.08,0.71,0.21    c0.19,0.13,0.35,0.3,0.46,0.53c0.12,0.22,0.2,0.46,0.25,0.73c0.06,0.26,0.08,0.54,0.08,0.81c0,0.88-0.08,1.7-0.23,2.45    c-0.14,0.77-0.36,1.43-0.64,2.01c-0.27,0.57-0.61,1.01-0.99,1.34c-0.38,0.32-0.81,0.49-1.27,0.49c-0.37,0-0.66-0.12-0.88-0.32    c-0.22-0.22-0.38-0.5-0.48-0.86c-0.1-0.35-0.15-0.75-0.15-1.18c0-0.62,0.04-1.23,0.14-1.83c0.09-0.6,0.22-1.16,0.39-1.69    c0.18-0.52,0.39-0.99,0.64-1.39s0.54-0.72,0.86-0.95c0.33-0.22,0.69-0.34,1.08-0.35H133.92z M146.12,23.758l0.09-0.61    c0.16-1.07,0.23-1.85,0.22-2.37c0-0.52-0.09-0.78-0.25-0.78c-0.06,0-0.2,0.02-0.42,0.06l-0.79,0.14l-0.9,0.2    c-0.31,0.06-0.59,0.12-0.83,0.19c-0.24,0.05-0.41,0.1-0.51,0.14c0.03,0.25,0.01,0.78-0.06,1.57c-0.07,0.8-0.22,1.92-0.43,3.35    c-0.12,0.68-0.23,1.38-0.34,2.1l-0.35,2.13l-0.33,1.96l-0.29,1.59c0.65-0.01,1.19-0.04,1.65-0.09c0.45-0.06,0.81-0.12,1.1-0.21    c0.29-0.08,0.51-0.18,0.67-0.28c0.12-0.09,0.22-0.2,0.31-0.35c0.09-0.16,0.17-0.39,0.25-0.7c0.29-1.43,0.61-2.65,0.97-3.66    c0.36-1.01,0.72-1.85,1.1-2.5c0.38-0.66,0.74-1.18,1.11-1.55c0.36-0.37,0.69-0.63,1-0.78c0.31-0.16,0.56-0.23,0.78-0.22    c0.24,0,0.43,0.08,0.54,0.24c0.11,0.16,0.18,0.38,0.19,0.65c0.01,0.26,0.01,0.56-0.04,0.88c-0.06,0.61-0.14,1.26-0.25,1.96    c-0.11,0.7-0.23,1.42-0.37,2.17s-0.29,1.51-0.44,2.25l-0.45,2.19c0.66-0.01,1.21-0.05,1.67-0.11c0.45-0.06,0.82-0.13,1.1-0.21    c0.28-0.09,0.51-0.17,0.66-0.23c0.13-0.06,0.25-0.17,0.35-0.35c0.11-0.17,0.2-0.42,0.25-0.73c0.27-1.43,0.57-2.66,0.91-3.67    c0.34-1.01,0.7-1.85,1.07-2.51c0.369-0.65,0.739-1.17,1.1-1.54c0.369-0.37,0.699-0.63,1.02-0.78c0.311-0.15,0.58-0.22,0.811-0.21    c0.189,0,0.35,0.08,0.47,0.23c0.11,0.16,0.181,0.36,0.21,0.63c0.03,0.27,0,0.57-0.07,0.91c-0.08,0.35-0.149,0.75-0.24,1.19    c-0.08,0.45-0.17,0.91-0.25,1.39l-0.25,1.42l-0.219,1.25c-0.061,0.39-0.121,0.79-0.15,1.19c-0.04,0.4-0.07,0.77-0.08,1.1    c-0.01,0.34-0.01,0.62,0.01,0.83c0.02,0.2,0.051,0.31,0.1,0.32l0.65-0.03c0.301-0.02,0.63-0.04,1-0.09    c0.359-0.03,0.721-0.09,1.061-0.16c0.35-0.06,0.629-0.15,0.859-0.25c0.01-0.48,0.051-1.02,0.11-1.62    c0.069-0.59,0.149-1.25,0.271-1.96l0.219-1.51l0.271-1.63c0.101-0.56,0.19-1.09,0.29-1.61c0.1-0.55,0.141-1.11,0.13-1.66    c-0.021-0.54-0.11-1.05-0.271-1.51c-0.159-0.45-0.42-0.82-0.779-1.09c-0.359-0.28-0.84-0.43-1.43-0.43    c-0.68,0-1.301,0.12-1.871,0.33c-0.569,0.21-1.079,0.5-1.549,0.87c-0.461,0.36-0.881,0.77-1.26,1.22c-0.371,0.45-0.711,0.91-1,1.4    h-0.06c0.01-0.07,0.02-0.12,0.02-0.15l0.01-0.18c0.05-0.64,0-1.22-0.15-1.74c-0.14-0.53-0.4-0.95-0.76-1.27    c-0.36-0.31-0.84-0.47-1.44-0.48c-0.67,0-1.28,0.13-1.85,0.36c-0.57,0.24-1.09,0.55-1.55,0.92c-0.47,0.38-0.89,0.79-1.26,1.22    c-0.37,0.44-0.69,0.86-0.97,1.26H146.12z"/>
		<path fill="#E11F26" d="M109.47,25.458c-0.48,0.01-0.9,0.11-1.24,0.32c-0.35,0.2-0.62,0.49-0.8,0.86    c-0.19,0.37-0.28,0.81-0.29,1.32c0.01,0.41,0.09,0.77,0.25,1.06c0.16,0.3,0.38,0.54,0.67,0.7c0.29,0.16,0.63,0.24,1.02,0.24    c0.44,0,0.82-0.1,1.16-0.31c0.33-0.2,0.6-0.49,0.79-0.85c0.19-0.36,0.28-0.78,0.29-1.25c0-0.39-0.07-0.73-0.21-1.05    c-0.14-0.31-0.35-0.56-0.62-0.75c-0.26-0.18-0.6-0.28-1-0.29H109.47z"/>
		<g>
			<path fill="#20438E" d="M111.99,11.849l0.87-0.85h2.56l4.06-4.95l-7.38-3.46l1.65-1.14l8.5,1.89c0,0,4.69-4.3,5.85-3.14     c1.17,1.16-3.25,5.74-3.25,5.74l1.45,8.12l-1.08,1.56l-3.12-6.93l-5.1,3.91v2.58l-0.89,0.87l-1.25-2.94L111.99,11.849z"/>
		</g>
		<path fill-rule="evenodd" clip-rule="evenodd" fill="#E11F26" d="M109.23,23.458c0.71,0,1.38,0.21,1.97,0.51    c1.13-3.43,1.83-5.49,3.79-7.97h-2.7c-1.93,2.45-2.84,4.42-3.65,7.63C108.84,23.608,109.03,23.458,109.23,23.458z"/>
		<path fill-rule="evenodd" clip-rule="evenodd" fill="#E11F26" d="M109.31,32.289c-0.59,0-1.16-0.12-1.67-0.33    c0.19,3.22,0.81,5.3,2.21,8.04h2.79c-1.38-2.69-2-4.75-2.2-7.86C110.08,32.229,109.7,32.289,109.31,32.289z"/>
	</g>
</g>
</svg>